<svg width="96" height="70" viewBox="0 0 96 70" fill="none" xmlns="http://www.w3.org/2000/svg">
<path d="M87 31.0005L79.1429 59.1992H17.8571L10 31.0005L14.8125 28.1705L32.7857 38.3786L43.8839 16.2441H52.1339L64.9018 37.7722L82.7768 27.2609L87 31.0005Z" fill="#FAEE86"/>
<path d="M17.7666 30.5942L15.2285 29.1743L10.2539 32.014L18.3758 60.3096H23.4519L15.3301 32.014L17.7666 30.5942Z" fill="#FFE500"/>
<path d="M38.8835 39.4175L50.3556 17.207H45.2794L34.9241 37.2877L38.8835 39.4175Z" fill="#FFE500"/>
<path d="M48.0488 17.9902C52.5703 17.9902 56.2356 14.3288 56.2356 9.81226C56.2356 5.29568 52.5703 1.63428 48.0488 1.63428C43.5274 1.63428 39.8621 5.29568 39.8621 9.81226C39.8621 14.3288 43.5274 17.9902 48.0488 17.9902Z" fill="#FAEE86"/>
<path d="M43.4681 9.81226C43.4681 5.91798 46.197 2.7052 49.8031 1.82899C49.2183 1.73163 48.6336 1.63428 48.0488 1.63428C43.5656 1.63428 39.8621 5.23648 39.8621 9.81226C39.8621 14.2907 43.4681 17.9902 48.0488 17.9902C48.6336 17.9902 49.2183 17.8929 49.8031 17.7955C46.197 16.9193 43.4681 13.7065 43.4681 9.81226Z" fill="#FFE500"/>
<path d="M8.08923 31.0366C11.6956 31.0366 14.6191 28.1161 14.6191 24.5134C14.6191 20.9108 11.6956 17.9902 8.08923 17.9902C4.48287 17.9902 1.55933 20.9108 1.55933 24.5134C1.55933 28.1161 4.48287 31.0366 8.08923 31.0366Z" fill="#FAEE86"/>
<path d="M4.67811 24.5134C4.67811 21.4952 6.82228 18.8665 9.64868 18.185C9.16137 18.0876 8.67406 17.9902 8.08929 17.9902C4.48319 17.9902 1.55933 20.9111 1.55933 24.5134C1.55933 28.1158 4.48319 31.0366 8.08929 31.0366C8.67406 31.0366 9.16137 30.9393 9.64868 30.8419C6.82228 30.063 4.67811 27.5316 4.67811 24.5134Z" fill="#FFE500"/>
<path d="M88.008 31.0366C91.6144 31.0366 94.538 28.1161 94.538 24.5134C94.538 20.9108 91.6144 17.9902 88.008 17.9902C84.4016 17.9902 81.478 20.9108 81.478 24.5134C81.478 28.1161 84.4016 31.0366 88.008 31.0366Z" fill="#FAEE86"/>
<path d="M84.7917 24.5137C84.7917 21.4955 86.8384 18.9641 89.6648 18.2826C89.1775 18.1853 88.5927 18.0879 88.008 18.0879C84.4019 18.0879 81.478 21.0087 81.478 24.6111C81.478 28.2134 84.4019 31.1343 88.008 31.1343C88.5927 31.1343 89.08 31.0369 89.6648 30.9396C86.8384 30.0633 84.7917 27.5319 84.7917 24.5137Z" fill="#FFE500"/>
<path d="M80.0162 62.873C80.0162 65.5994 77.4822 67.8389 74.4609 67.8389H21.734C18.6153 67.8389 16.1787 65.5994 16.1787 62.873C16.1787 60.1467 18.7127 57.9072 21.734 57.9072H74.3634C77.4822 57.9072 80.0162 60.1467 80.0162 62.873Z" fill="#E5CDFD"/>
<path d="M21.6366 62.873C21.6366 60.1467 24.1706 57.9072 27.1919 57.9072H21.734C18.6153 57.9072 16.1787 60.1467 16.1787 62.873C16.1787 65.5994 18.7127 67.8389 21.734 67.8389H27.1919C24.0731 67.7415 21.6366 65.5994 21.6366 62.873Z" fill="#C1A0E1"/>
<path d="M88.0081 16.5305C83.6223 16.5305 80.0162 20.1328 80.0162 24.514C80.0162 25.3902 80.1137 26.1691 80.4061 26.948L64.6173 35.613L54.0914 17.3094C56.2355 15.5569 57.6975 12.8309 57.6975 9.81271C57.6975 4.5553 53.4091 0.271484 48.1462 0.271484C42.8832 0.271484 38.5949 4.5553 38.5949 9.81271C38.5949 12.8309 39.9594 15.5569 42.201 17.3094L31.4802 35.613L15.5939 26.948C15.8863 26.1691 15.9838 25.2929 15.9838 24.514C15.9838 20.1328 12.3777 16.5305 7.99188 16.5305C3.60609 16.5305 0 20.1328 0 24.514C0 28.8952 3.60609 32.4975 7.99188 32.4975C8.28426 32.4975 8.47919 32.4975 8.77157 32.4975L16.1787 58.3951C16.1787 58.4924 16.2761 58.6871 16.3736 58.7845C15.3015 59.9528 14.6193 61.3158 14.6193 62.971C14.6193 66.4759 17.7381 69.2993 21.6365 69.2993H74.3635C78.2619 69.2993 81.3807 66.4759 81.3807 62.971C81.3807 61.4132 80.6985 59.9528 79.6264 58.7845C79.7239 58.6871 79.7239 58.5898 79.8213 58.3951L87.2284 32.4975C87.5208 32.4975 87.7157 32.4975 88.0081 32.4975C92.3939 32.4975 96 28.8952 96 24.514C96 20.1328 92.3939 16.5305 88.0081 16.5305ZM48.0487 3.09491C51.7523 3.09491 54.7736 6.11305 54.7736 9.81271C54.7736 13.5124 51.7523 16.5305 48.0487 16.5305C44.3452 16.5305 41.3239 13.5124 41.3239 9.81271C41.3239 6.11305 44.3452 3.09491 48.0487 3.09491ZM3.02132 24.514C3.02132 21.6906 5.26294 19.4513 8.08934 19.4513C10.9157 19.4513 13.1574 21.6906 13.1574 24.514C13.1574 27.3374 10.9157 29.5767 8.08934 29.5767C5.26294 29.5767 3.02132 27.24 3.02132 24.514ZM74.3635 66.3785H21.734C19.3949 66.3785 17.5431 64.8208 17.5431 62.8736C17.5431 60.9264 19.3949 59.3687 21.734 59.3687H74.3635C76.6051 59.3687 78.5543 60.9264 78.5543 62.8736C78.5543 64.7234 76.7025 66.3785 74.3635 66.3785ZM77.3848 56.4479H74.3635H21.734H18.7127L11.598 31.6212C12.6701 31.1344 13.5472 30.3555 14.2294 29.4793L31.2853 38.7285C31.4802 38.8258 31.7726 38.9232 31.9675 38.9232C32.4548 38.9232 32.9421 38.6311 33.2345 38.2417L44.5401 18.7698C45.6122 19.1592 46.7817 19.4513 48.0487 19.4513C49.3157 19.4513 50.4853 19.1592 51.5574 18.7698L62.8629 38.2417C63.1553 38.7285 63.6426 38.9232 64.13 38.9232C64.3249 38.9232 64.6173 38.8258 64.8122 38.7285L81.868 29.4793C82.5503 30.3555 83.5249 31.0371 84.4995 31.6212L77.3848 56.4479ZM88.0081 29.5767C85.1817 29.5767 82.9401 27.3374 82.9401 24.514C82.9401 21.6906 85.1817 19.4513 88.0081 19.4513C90.8345 19.4513 93.0761 21.6906 93.0761 24.514C93.0761 27.24 90.8345 29.5767 88.0081 29.5767Z" fill="black"/>
</svg>
