<svg width="96" height="89" viewBox="0 0 96 89" fill="none" xmlns="http://www.w3.org/2000/svg">
<path d="M62.3939 42.974C58.4621 46.8425 54.5451 50.7406 50.6281 54.609C49.7675 55.4539 48.3877 55.4539 47.5271 54.609L41.3549 48.4432C40.4943 47.5836 40.4943 46.1903 41.3549 45.3455C45.257 41.477 49.174 37.5937 53.091 33.7104L62.3939 42.974Z" fill="#FAEE86"/>
<path d="M49.0997 55.9873C48.3431 55.9873 47.6012 55.7057 47.0225 55.1277L40.8503 48.9619C40.2865 48.3987 39.9897 47.6724 39.9897 46.8869C39.9897 46.1014 40.3013 45.3603 40.8503 44.8119L52.5865 33.177C52.8832 32.8954 53.3432 32.8954 53.6399 33.177L62.928 42.4553C63.0615 42.5887 63.1505 42.7814 63.1505 42.9889C63.1505 43.1964 63.0763 43.3742 62.928 43.5076C58.9961 47.376 55.0791 51.2593 51.1621 55.1425C50.5835 55.6909 49.8416 55.9873 49.0997 55.9873ZM53.1058 34.7333L41.8889 45.8494C41.607 46.1162 41.4586 46.4867 41.4586 46.8721C41.4586 47.2574 41.607 47.628 41.8889 47.8948L48.0611 54.0605C48.625 54.6237 49.5449 54.6237 50.1087 54.0605C53.8476 50.3551 57.5866 46.6498 61.3404 42.9444L53.1058 34.7333Z" fill="black"/>
<path d="M14.2029 87.439C24.307 77.375 37.4675 64.2429 47.3342 54.4012L41.6219 48.6948C31.3992 58.8774 17.6451 72.6024 7.42236 82.7998L12.0515 87.4242C12.645 88.0319 13.6094 88.0319 14.2029 87.439Z" fill="#FAEE86"/>
<path d="M13.1346 88.6245C12.5559 88.6245 11.9624 88.4022 11.5173 87.9575L6.90298 83.3331C6.76944 83.1997 6.68042 83.0071 6.68042 82.8144C6.68042 82.6217 6.75461 82.429 6.90298 82.2956L41.1025 48.1907C41.3993 47.9091 41.8592 47.9091 42.156 48.1907L47.8683 53.8971C48.0018 54.0305 48.0908 54.2232 48.0908 54.4159C48.0908 54.6085 48.0166 54.8012 47.8683 54.9346L14.737 87.9575C14.2919 88.4022 13.7132 88.6245 13.1346 88.6245ZM8.47571 82.8144L12.5708 86.9052C12.8823 87.2164 13.372 87.2313 13.6835 86.92L46.2955 54.4159L41.6367 49.7618L8.47571 82.8144Z" fill="black"/>
<path d="M18.5651 71.6831L9.14347 62.2716C8.74287 61.8714 8.74287 61.2044 9.14347 60.8043L11.3839 58.5662C11.7845 58.1661 12.4522 58.1661 12.8528 58.5662L22.2744 67.9778L18.5651 71.6831Z" fill="#FAEE86"/>
<path d="M19.214 74.8804L10.4304 66.0968L12.6263 63.9009" stroke="#FFE500" stroke-width="2" stroke-linecap="round"/>
<path d="M18.5649 72.4243C18.372 72.4243 18.1791 72.3502 18.0456 72.202L8.62404 62.7904C8.28278 62.4495 8.10474 62.0048 8.10474 61.5306C8.10474 61.0563 8.29762 60.6116 8.62404 60.2707L10.8644 58.0327C11.5618 57.3361 12.6894 57.3361 13.3868 58.0327L22.8083 67.4443C23.1051 67.7407 23.1051 68.2002 22.8083 68.4966L19.099 72.202C18.9358 72.3502 18.743 72.4243 18.5649 72.4243ZM12.1108 58.9961C12.0366 58.9961 11.9624 59.0257 11.903 59.085L9.66263 61.3231C9.55877 61.4268 9.55877 61.6491 9.66263 61.7381L18.5649 70.6309L21.2208 67.9779L12.3185 59.085C12.274 59.0257 12.1849 58.9961 12.1108 58.9961Z" fill="black"/>
<path d="M11.1317 79.0942L1.71012 69.6824C1.30952 69.2822 1.30952 68.6152 1.71012 68.215L3.95052 65.9769C4.35112 65.5767 5.01879 65.5767 5.41939 65.9769L14.8409 75.3888L11.1317 79.0942Z" fill="#FAEE86"/>
<path d="M11.5285 82.5659L2.74487 73.7823L4.94077 71.5864" stroke="#FFE500" stroke-width="2" stroke-linecap="round"/>
<path d="M11.1316 79.8354C10.9387 79.8354 10.7458 79.7613 10.6123 79.6131L1.19073 70.2012C0.493389 69.5046 0.493389 68.3781 1.19073 67.6815L3.43113 65.4434C4.12847 64.7467 5.25609 64.7467 5.95343 65.4434L15.375 74.8553C15.6717 75.1517 15.6717 75.6112 15.375 75.9076L11.6657 79.6131C11.5173 79.7613 11.3245 79.8354 11.1316 79.8354ZM4.69228 66.4216C4.6181 66.4216 4.54391 66.4513 4.48456 66.5105L2.24416 68.7487C2.12547 68.8672 2.12547 69.0451 2.24416 69.1637L11.1464 78.0568L13.8022 75.4037L4.9 66.5105C4.84065 66.4513 4.76647 66.4216 4.69228 66.4216Z" fill="black"/>
<path d="M9.38208 69.9263L13.0961 66.2164L18.5621 71.6764L14.8481 75.3863L9.38208 69.9263Z" fill="#FAEE86"/>
<path d="M15.371 78.7229L10.9792 74.3311L13.1751 72.1353" stroke="#FFE500" stroke-width="2" stroke-linecap="round"/>
<path d="M14.8406 76.1299C14.6477 76.1299 14.4549 76.0558 14.3213 75.9076L8.86123 70.4532C8.56449 70.1568 8.56449 69.6973 8.86123 69.4009L12.5705 65.6955C12.8673 65.399 13.3272 65.399 13.624 65.6955L19.0841 71.1498C19.3808 71.4463 19.3808 71.9057 19.0841 72.2022L15.3748 75.9076C15.2264 76.0558 15.0335 76.1299 14.8406 76.1299ZM10.434 69.9345L14.8555 74.3513L17.5113 71.6982L13.0898 67.2814L10.434 69.9345Z" fill="black"/>
<path d="M7.42236 82.7998L1.0424 76.4265C0.641793 76.0263 0.641793 75.3593 1.0424 74.9591L4.02466 71.98L11.1465 79.0944L7.42236 82.7998Z" fill="#FAEE86"/>
<path d="M7.13656 85.3103L2.1958 80.3696L3.84272 78.7227" stroke="#FFE500" stroke-width="2" stroke-linecap="round"/>
<path d="M7.42231 83.541C7.22942 83.541 7.03654 83.4669 6.90301 83.3187L0.523011 76.9601C-0.174337 76.2634 -0.174337 75.137 0.523011 74.4403L3.49045 71.4611C3.7872 71.1647 4.24715 71.1647 4.54389 71.4611L11.6657 78.5756C11.9625 78.8721 11.9625 79.3316 11.6657 79.628L7.95645 83.3335C7.80808 83.4817 7.61519 83.541 7.42231 83.541ZM4.02459 73.0322L1.56161 75.4927C1.44292 75.6113 1.44292 75.8039 1.56161 75.9077L7.42231 81.7624L10.0782 79.1092L4.02459 73.0322Z" fill="black"/>
<path d="M46.34 33.9473C40.1084 27.7223 40.1084 17.5845 46.34 11.3447C52.5716 5.1049 62.7202 5.11973 68.9666 11.3447C75.213 17.5697 75.1982 27.7075 68.9666 33.9473C62.735 40.1871 52.5716 40.1723 46.34 33.9473ZM64.5155 15.7763C60.7172 11.982 54.5597 11.982 50.7614 15.7763C46.9631 19.5706 46.9631 25.7214 50.7614 29.5157C54.5597 33.31 60.7172 33.31 64.5155 29.5157C68.3138 25.7214 68.3138 19.5706 64.5155 15.7763Z" fill="#FAEE86"/>
<path d="M54.8972 12.2969C48.3233 14.6758 37.8319 23.4959 48.4575 39.7456" stroke="#FFE500" stroke-width="3" stroke-linecap="round"/>
<path d="M57.646 39.3574C53.358 39.3574 49.0701 37.727 45.8059 34.4663C42.6456 31.3093 40.9097 27.1148 40.9097 22.6387C40.9097 18.1626 42.6456 13.968 45.8059 10.811C52.3343 4.28955 62.9428 4.28955 69.4712 10.811C75.9995 17.3325 75.9995 27.93 69.4712 34.4515C66.2218 37.727 61.9339 39.3574 57.646 39.3574ZM57.646 7.4169C53.7438 7.4169 49.8268 8.89906 46.8594 11.8782C43.981 14.7536 42.3934 18.5776 42.3934 22.6535C42.3934 26.7294 43.981 30.5534 46.8594 33.4288C52.8091 39.3722 62.4829 39.3722 68.4326 33.4288C74.3823 27.4853 74.3823 17.8217 68.4326 11.8782C65.4503 8.89906 61.5481 7.4169 57.646 7.4169ZM57.646 33.1027C54.9604 33.1027 52.2898 32.08 50.2422 30.0495C46.162 25.9735 46.162 19.3335 50.2422 15.2575C54.3224 11.1816 60.9547 11.1816 65.0497 15.2575C69.1299 19.3335 69.1299 25.9735 65.0497 30.0495C63.0022 32.08 60.3315 33.1027 57.646 33.1027ZM57.646 13.6864C55.3462 13.6864 53.0465 14.5609 51.2957 16.3099C47.7941 19.8077 47.7941 25.4992 51.2957 28.9971C54.7972 32.495 60.4947 32.495 63.9963 28.9971C67.4978 25.4992 67.4978 19.8077 63.9963 16.3099C62.2455 14.5609 59.9457 13.6864 57.646 13.6864Z" fill="black"/>
<path d="M62.0821 49.6734C55.8505 43.4484 55.8505 33.3106 62.0821 27.0708C68.3137 20.831 78.4624 20.8458 84.7088 27.0708C90.9552 33.2958 90.9404 43.4336 84.7088 49.6734C78.4772 55.9132 68.3137 55.8983 62.0821 49.6734ZM80.2725 31.5024C76.4742 27.7081 70.3168 27.7081 66.5185 31.5024C62.7201 35.2966 62.7201 41.4475 66.5185 45.2418C70.3168 49.036 76.4742 49.036 80.2725 45.2418C84.056 41.4623 84.056 35.2966 80.2725 31.5024Z" fill="#FAEE86"/>
<path d="M73.3882 55.083C69.1002 55.083 64.8123 53.4527 61.5481 50.192C58.3878 47.035 56.6519 42.8406 56.6519 38.3645C56.6519 33.8885 58.3878 29.694 61.5481 26.537C68.0765 20.0156 78.685 20.0156 85.2134 26.537C91.7417 33.0585 91.7417 43.6557 85.2134 50.1771C81.964 53.4527 77.6761 55.083 73.3882 55.083ZM73.3882 23.143C69.486 23.143 65.569 24.6251 62.6015 27.6042C59.7231 30.4795 58.1356 34.3034 58.1356 38.3793C58.1356 42.4552 59.7231 46.2791 62.6015 49.1545C68.5512 55.0978 78.2251 55.0978 84.1748 49.1545C90.1245 43.2111 90.1245 33.5476 84.1748 27.6042C81.2073 24.6251 77.2903 23.143 73.3882 23.143ZM73.3882 48.8284C70.7026 48.8284 68.0319 47.8057 65.9844 45.7752C61.9042 41.6993 61.9042 35.0593 65.9844 30.9835C70.0646 26.9076 76.7117 26.9076 80.7919 30.9835C84.8721 35.0593 84.8721 41.6993 80.7919 45.7752C78.7444 47.8057 76.0737 48.8284 73.3882 48.8284ZM73.3882 29.4124C71.0884 29.4124 68.7886 30.2869 67.0379 32.0358C63.5363 35.5336 63.5363 41.225 67.0379 44.7229C70.5394 48.2207 76.2369 48.2207 79.7385 44.7229C83.24 41.225 83.24 35.5336 79.7385 32.0358C77.9877 30.2869 75.6879 29.4124 73.3882 29.4124Z" fill="black"/>
<path d="M67.9725 28.0638C61.7409 21.8387 61.7409 11.7006 67.9725 5.46057C74.2041 -0.779421 84.3527 -0.764598 90.5992 5.46057C96.8456 11.6857 96.8308 21.8239 90.5992 28.0638C84.3676 34.3038 74.2041 34.289 67.9725 28.0638ZM86.148 9.89229C82.3497 6.0979 76.1923 6.0979 72.394 9.89229C68.5957 13.6867 68.5957 19.8377 72.394 23.6321C76.1923 27.4265 82.3497 27.4265 86.148 23.6321C89.9463 19.8377 89.9463 13.6867 86.148 9.89229Z" fill="#FAEE86"/>
<path d="M79.0521 6.80762C70.5061 9.1865 56.8673 18.0067 70.6805 34.2563" stroke="#FFE500" stroke-width="3" stroke-linecap="round"/>
<path d="M79.2785 33.4736C74.9906 33.4736 70.7027 31.8432 67.4385 28.5825C60.9102 22.061 60.9102 11.4635 67.4385 4.94193C73.9668 -1.5796 84.5754 -1.5796 91.1037 4.94193C97.6321 11.4635 97.6321 22.061 91.1037 28.5825C87.8544 31.8432 83.5665 33.4736 79.2785 33.4736ZM68.4919 27.545C74.4416 33.4885 84.1154 33.4885 90.0651 27.545C96.0148 21.6015 96.0148 11.9378 90.0651 5.99427C84.1154 0.0507807 74.4416 0.0507807 68.4919 5.99427C62.5422 11.9378 62.5422 21.6015 68.4919 27.545ZM79.2785 27.2189C76.593 27.2189 73.9223 26.1962 71.8748 24.1656C67.7946 20.0897 67.7946 13.4496 71.8748 9.37361C73.8481 7.40233 76.4743 6.32035 79.2785 6.32035C82.0828 6.32035 84.7089 7.40233 86.6823 9.37361C90.7625 13.4496 90.7625 20.0897 86.6823 24.1656C84.6347 26.1962 81.9641 27.2189 79.2785 27.2189ZM79.2785 7.80251C76.8749 7.80251 74.6197 8.73628 72.9282 10.4259C69.4267 13.9239 69.4267 19.6154 72.9282 23.1133C76.4298 26.6112 82.1273 26.6112 85.6288 23.1133C89.1304 19.6154 89.1304 13.9239 85.6288 10.4259C83.9374 8.73628 81.6822 7.80251 79.2785 7.80251Z" fill="black"/>
<path d="M70.9695 39.9209C79.1885 39.9209 85.8512 33.2651 85.8512 25.0547C85.8512 16.8443 79.1885 10.1885 70.9695 10.1885C62.7506 10.1885 56.0879 16.8443 56.0879 25.0547C56.0879 33.2651 62.7506 39.9209 70.9695 39.9209Z" fill="#FAEE86"/>
<path d="M68.0724 16.689C62.156 18.7824 52.7137 26.5441 62.2767 40.8438" stroke="#FFE500" stroke-width="3" stroke-linecap="round"/>
<path d="M70.9694 40.647C66.9634 40.647 62.9722 39.1203 59.9306 36.0819C53.8474 30.005 53.8474 20.104 59.9306 14.0123C66.0138 7.93536 75.925 7.93536 82.0231 14.0123C84.9757 16.9618 86.5929 20.8748 86.5929 25.0397C86.5929 29.2046 84.9757 33.1323 82.0231 36.0671C78.9815 39.1352 74.9754 40.647 70.9694 40.647ZM70.9694 10.9442C67.3491 10.9442 63.7289 12.3226 60.9692 15.0794C55.4646 20.5783 55.4646 29.5455 60.9692 35.0443C66.4738 40.5432 75.4502 40.5432 80.9548 35.0443C83.6255 32.3764 85.0943 28.834 85.0943 25.0545C85.0943 21.2749 83.6255 17.7325 80.9548 15.0646C78.2099 12.3226 74.5897 10.9442 70.9694 10.9442Z" fill="black"/>
<path d="M70.9698 33.6514C75.7225 33.6514 79.5753 29.8025 79.5753 25.0547C79.5753 20.3069 75.7225 16.458 70.9698 16.458C66.2171 16.458 62.3643 20.3069 62.3643 25.0547C62.3643 29.8025 66.2171 33.6514 70.9698 33.6514Z" fill="#E5CDFD"/>
<path d="M70.9698 34.3926C68.4772 34.3926 66.1181 33.4292 64.3673 31.6654C60.7174 28.0192 60.7174 22.1053 64.3673 18.4591C66.1329 16.6954 68.4772 15.7319 70.9698 15.7319C73.4625 15.7319 75.8216 16.6954 77.5724 18.4591C81.2223 22.1053 81.2223 28.0192 77.5724 31.6654C75.8216 33.4292 73.4773 34.3926 70.9698 34.3926ZM70.9698 17.2141C68.863 17.2141 66.8896 18.0293 65.4059 19.5115C62.3346 22.5796 62.3346 27.5597 65.4059 30.6278C66.8896 32.11 68.863 32.9252 70.9698 32.9252C73.0767 32.9252 75.0501 32.11 76.5338 30.6278C79.6051 27.5597 79.6051 22.5796 76.5338 19.5115C75.0501 18.0293 73.0767 17.2141 70.9698 17.2141Z" fill="black"/>
</svg>
