<svg width="32" height="68" viewBox="0 0 32 68" fill="none" xmlns="http://www.w3.org/2000/svg">
<path d="M1 54.1429V47L16 59.8571L31 47V54.1429L16 67L1 54.1429Z" fill="black" stroke="black" stroke-linecap="round"/>
<path d="M1 34.1429V27L16 39.8571L31 27V34.1429L16 47L1 34.1429Z" fill="black" stroke="black" stroke-linecap="round"/>
<path d="M1 14.1429V7L16 19.8571L31 7V14.1429L16 27L1 14.1429Z" fill="black" stroke="black" stroke-linecap="round"/>
<path d="M1 49.1429V42L16 54.8571L31 42V49.1429L16 62L1 49.1429Z" fill="white" stroke="black" stroke-linecap="round"/>
<path d="M1 29.1429V22L16 34.8571L31 22V29.1429L16 42L1 29.1429Z" fill="white" stroke="black" stroke-linecap="round"/>
<path d="M1 9.14286V2L16 14.8571L31 2V9.14286L16 22L1 9.14286Z" fill="white" stroke="black" stroke-linecap="round"/>
</svg>
