<svg width="97" height="101" viewBox="0 0 97 101" fill="none" xmlns="http://www.w3.org/2000/svg">
<path d="M93.9677 59.2747L85.712 36.6161C84.1098 32.2187 79.2424 29.9514 74.8402 31.5518L45.3159 42.2865V58.049L34.9705 58.0332L40.8301 78.5947C43.327 85.4481 48.8071 90.7959 55.7242 93.1294L70.5136 98.1183C75.5252 99.8089 81.0405 97.8038 83.7915 93.2907L91.9105 79.9724C95.708 73.7435 96.4648 66.1279 93.9677 59.2747ZM80.5801 76.2548C77.4994 76.2909 74.1295 76.8955 70.7476 78.1251C67.372 79.3523 64.4061 81.0492 62.025 82.995C61.0114 83.8235 59.449 83.0865 59.4826 81.7785C59.6129 76.7108 62.7889 72.0016 67.8464 70.1629C72.872 68.3355 78.298 69.8724 81.6637 73.6189C82.5579 74.6139 81.9184 76.239 80.5801 76.2548Z" fill="#4892A1"/>
<path d="M57.3024 88.4479C51.895 86.6239 47.6107 82.443 45.6586 77.0853L38.7228 58.0493H33.344L40.83 78.5949C43.3271 85.4483 48.8072 90.7963 55.7245 93.1298L70.5135 98.1187C74.1368 99.3409 78.0089 98.6086 80.9238 96.4166L57.3024 88.4479Z" fill="#066578"/>
<path d="M59.2506 15.7813L22.0541 2.25701C17.6521 0.656324 12.7847 2.92389 11.1824 7.32128L2.9268 29.9798C0.42971 36.833 1.18655 44.4488 4.98385 50.6779L13.1029 63.9961C15.8541 68.5092 21.3692 70.5145 26.3807 68.8239L41.1701 63.8349C48.0872 61.5014 53.5673 56.1536 56.0642 49.3002L64.32 26.6415C65.9223 22.2441 63.6526 17.3817 59.2506 15.7813V15.7813ZM38.0303 50.6829C34.6646 54.4292 29.2386 55.9661 24.2129 54.1389C19.1553 52.3 15.9795 47.5908 15.8492 42.5232C15.8156 41.2152 17.3777 40.4781 18.3916 41.3067C20.7727 43.2526 23.7383 44.9492 27.114 46.1767C30.496 47.4063 33.8658 48.0109 36.9465 48.0472C38.2848 48.0628 38.9242 49.6879 38.0303 50.6829V50.6829Z" fill="#E5CDFD"/>
<path d="M9.20531 48.105C6.23673 43.2354 5.64512 37.2819 7.5971 31.9242L18.5843 1.76904C15.3376 1.98913 12.3671 4.07035 11.1825 7.32164L2.92674 29.98C0.429644 36.8333 1.18668 44.449 4.98398 50.6781L13.1028 63.996C15.0919 67.2588 18.5292 69.1843 22.1728 69.3765L9.20531 48.105Z" fill="#C1A0E1"/>
<path d="M57.441 49.8007L65.6967 27.1421C66.6055 24.648 66.4875 21.9496 65.3647 19.5441C64.2418 17.1386 62.2484 15.3139 59.7517 14.4061L22.5551 0.881827C20.0582 -0.0258259 17.357 0.0918255 14.9493 1.21351C12.5413 2.3354 10.7147 4.32669 9.80593 6.82079L1.55019 29.4795C-1.11351 36.7903 -0.317997 44.7943 3.73282 51.439L11.8517 64.7574C13.3546 67.2228 15.6777 69.1244 18.3931 70.1116C19.7984 70.6226 21.2807 70.8784 22.7633 70.8784C24.1457 70.8784 25.5283 70.656 26.8493 70.2104L41.6387 65.2212C49.0176 62.7322 54.7773 57.1116 57.441 49.8007ZM25.9121 67.4375C21.5187 68.9199 16.7658 67.1916 14.354 63.235L6.235 49.9166C2.64961 44.0352 1.9455 36.9509 4.30314 30.4801L12.5591 7.82171C13.2001 6.0622 14.4888 4.65741 16.1874 3.86604C17.131 3.42665 18.138 3.20559 19.149 3.20559C19.9584 3.20559 20.7701 3.34744 21.5533 3.6321L58.7496 17.1564C60.5109 17.7967 61.9172 19.0841 62.7092 20.7811C63.5012 22.4782 63.5846 24.3817 62.9434 26.1412L54.6876 48.7997C52.33 55.2706 47.2321 60.2453 40.7013 62.4485L25.9121 67.4375Z" fill="black"/>
<path d="M39.7578 46.4417C36.0439 46.8811 31.731 46.2981 27.6149 44.8016C23.4989 43.3051 19.8207 40.9823 17.2578 38.2611C16.8887 37.8691 16.3342 37.711 15.8136 37.8498C15.2931 37.9883 14.8908 38.401 14.766 38.9244C13.0964 45.9207 16.9424 53.053 23.712 55.5144C25.3089 56.095 26.9479 56.3721 28.5634 56.3721C33.796 56.3719 38.777 53.4645 41.2397 48.5502C41.4807 48.0691 41.4381 47.4945 41.1285 47.0543C40.819 46.6142 40.2928 46.3791 39.7578 46.4417ZM24.7139 52.7639C20.2178 51.1292 17.3473 46.8982 17.3082 42.3075C19.9127 44.4646 23.1278 46.2844 26.6132 47.5517C30.0983 48.8189 33.7324 49.4891 37.1156 49.5092C34.1314 53.0009 29.2099 54.3987 24.7139 52.7639Z" fill="black"/>
<path d="M16.868 28.2947C18.1833 27.3415 20.0682 27.1378 21.7877 27.763C23.5071 28.3882 24.82 29.7547 25.2143 31.3293C25.3809 31.9941 25.978 32.438 26.6342 32.438C26.752 32.438 26.8715 32.4237 26.9909 32.3939C27.7758 32.1978 28.2528 31.4031 28.0565 30.6191C27.4196 28.0762 25.4506 25.9804 22.7897 25.0128C20.1288 24.0454 17.2721 24.3865 15.1479 25.9256C14.493 26.4001 14.3471 27.3152 14.8221 27.9694C15.2971 28.6237 16.2131 28.7692 16.868 28.2947Z" fill="black"/>
<path d="M49.3114 38.3471C48.6745 35.8044 46.7057 33.7088 44.0446 32.7413C41.3836 31.774 38.527 32.115 36.4028 33.6538C35.7479 34.1283 35.602 35.0433 36.077 35.6975C36.552 36.3518 37.468 36.4976 38.1229 36.0229C39.4383 35.07 41.3235 34.8661 43.0426 35.4914C44.762 36.1165 46.0748 37.483 46.4692 39.0575C46.6358 39.7222 47.2329 40.166 47.8891 40.166C48.0069 40.166 48.1264 40.1518 48.2457 40.1219C49.0307 39.9257 49.5079 39.131 49.3114 38.3471Z" fill="black"/>
<path d="M17.2254 22.6482C17.2379 22.6425 18.4971 22.0807 20.6325 21.8536C22.5977 21.6444 25.7344 21.6838 29.5188 23.0599C29.6842 23.12 29.8532 23.1484 30.0196 23.1484C30.6178 23.1484 31.1797 22.7793 31.3961 22.1852C31.6729 21.4257 31.2809 20.5862 30.5207 20.3098C22.0772 17.2399 16.2385 19.879 15.9944 19.9927C15.2639 20.333 14.9493 21.1971 15.2862 21.9285C15.6229 22.6599 16.4911 22.9805 17.2254 22.6482Z" fill="black"/>
<path d="M40.1464 26.9238C47.3685 29.5495 49.7931 34.4288 49.8282 34.5016C50.078 35.0299 50.6042 35.3403 51.1538 35.3403C51.361 35.3403 51.5718 35.296 51.772 35.2028C52.5052 34.8614 52.8224 33.9906 52.4804 33.2582C52.3665 33.0141 49.5921 27.2438 41.1483 24.1736C40.3886 23.8972 39.5476 24.2889 39.2708 25.0483C38.9942 25.8078 39.3862 26.6473 40.1464 26.9238Z" fill="black"/>
<path d="M95.3442 58.7739L87.0885 36.1153C85.2125 30.9666 79.4933 28.3027 74.3391 30.1764L67.7775 32.5622C67.0174 32.8387 66.6254 33.6784 66.9021 34.4378C67.1789 35.1972 68.0191 35.5884 68.7797 35.3123L75.3413 32.9265C78.9773 31.6042 83.0121 33.4839 84.3355 37.1161L92.5913 59.7746C94.9489 66.2455 94.2448 73.3298 90.6594 79.2112L82.5404 92.5296C80.1284 96.486 75.3755 98.2141 70.9823 96.7321L56.1931 91.7429C49.6621 89.5397 44.5642 84.5648 42.2066 78.0942L39.5888 70.9092C39.312 70.1496 38.4714 69.7581 37.7112 70.0345C36.9511 70.311 36.5591 71.1508 36.8358 71.9101L39.4536 79.0949C42.1173 86.4057 47.877 92.0262 55.2557 94.5156L70.0449 99.5048C71.3659 99.9504 72.7487 100.173 74.1309 100.173C75.6138 100.173 77.096 99.9169 78.5013 99.4059C81.2167 98.4186 83.5398 96.5171 85.0427 94.0517L93.1618 80.7332C97.2124 74.0887 98.0079 66.0847 95.3442 58.7739Z" fill="black"/>
<path d="M59.4472 86.4521C59.572 86.4853 59.6986 86.5015 59.8244 86.5015C60.223 86.5015 60.6107 86.3387 60.8914 86.0408C63.4543 83.3196 67.1325 80.9966 71.2485 79.5003C75.3648 78.0038 79.6771 77.4216 83.3914 77.8602C83.9248 77.9223 84.4527 77.6883 84.7623 77.248C85.0719 76.8076 85.1145 76.2332 84.8735 75.752C81.6504 69.3206 74.115 66.3263 67.3457 68.788C60.5761 71.2493 56.7302 78.3814 58.3998 85.3778C58.5244 85.9009 58.9267 86.3136 59.4472 86.4521ZM68.3475 71.5378C69.6149 71.077 70.9151 70.8573 72.1972 70.8573C75.4632 70.8573 78.606 72.2849 80.7488 74.7923C77.3658 74.8126 73.7316 75.4828 70.2466 76.7498C66.7612 78.0171 63.5463 79.8369 60.9416 81.994C60.9806 77.4035 63.8514 73.1725 68.3475 71.5378Z" fill="black"/>
<path d="M58.1549 58.6886C57.3459 58.7031 56.702 59.3697 56.7163 60.1776C56.7452 61.8005 55.833 63.461 54.3356 64.511C52.8381 65.5613 50.9651 65.8539 49.4467 65.2753C48.6905 64.9873 47.8444 65.3658 47.5559 66.1208C47.2674 66.8759 47.6465 67.7214 48.4024 68.0096C49.268 68.3395 50.1828 68.5015 51.1065 68.5015C52.7987 68.5015 54.5196 67.9575 56.0188 66.9061C58.3366 65.2809 59.6922 62.746 59.6456 60.1255C59.6311 59.3176 58.9629 58.6777 58.1549 58.6886Z" fill="black"/>
<path d="M74.0234 60.1074C74.2842 60.1074 74.5474 60.0961 74.8115 60.0735C77.6328 59.8302 80.0793 58.3179 81.356 56.0281C81.7498 55.322 81.4959 54.4308 80.789 54.0376C80.082 53.6445 79.19 53.8981 78.7965 54.604C78.0058 56.0221 76.3824 57.0007 74.5595 57.1578C72.7367 57.3147 70.9693 56.6287 69.9474 55.3669C69.4385 54.7385 68.516 54.6417 67.8873 55.1498C67.2584 55.658 67.1609 56.5795 67.6699 57.2077C69.166 59.0546 71.499 60.1074 74.0234 60.1074Z" fill="black"/>
<path d="M80.8999 49.2871C80.6558 49.1734 74.8171 46.5344 66.3736 49.6041C65.6134 49.8806 65.2214 50.7203 65.4982 51.4797C65.7148 52.0737 66.2765 52.4429 66.8748 52.4429C67.0412 52.4429 67.2103 52.4144 67.3755 52.3543C71.1597 50.9784 74.297 50.9392 76.2618 51.148C78.3749 51.3727 79.63 51.9253 79.6681 51.9422C80.4003 52.279 81.2677 51.9621 81.6087 51.2315C81.9503 50.4993 81.6331 49.6287 80.8999 49.2871Z" fill="black"/>
</svg>
