<svg width="96" height="76" viewBox="0 0 96 76" fill="none" xmlns="http://www.w3.org/2000/svg">
<path d="M36.1484 3.09216L35.353 2.08496H34.8997C32.7282 2.1605 23.0799 2.92429 13.0022 10.8979L12.6204 11.6701C10.6239 15.7829 1.54834 35.7758 1.54834 59.831L1.70742 60.108C2.83689 61.9293 9.81259 72.0517 25.8082 72.5889L28.1546 69.5589L31.1374 65.6224C21.863 62.6931 17.8859 56.801 17.2973 55.8526L17.2178 55.7183L17.5439 55.9449C17.9019 56.1967 18.5541 56.6164 19.4449 57.1452C19.5245 57.2291 19.604 57.313 19.7631 57.3969C20.0017 57.5648 20.2403 57.6488 20.479 57.8166C22.4675 58.9917 24.456 59.9149 26.2854 60.6703C29.5466 62.0133 33.4441 63.3562 37.9779 64.2795C43.7764 65.421 50.5452 65.849 57.9266 64.4893L58.5788 64.3634C62.3172 63.6919 66.1352 62.5169 70.1122 60.7543C72.8961 59.6631 75.9982 58.0684 79.2593 55.8022L79.1321 56.012C78.3685 57.1871 74.2006 63.0037 64.8625 65.7903L66.1749 67.5277C68.1873 70.1632 70.1122 72.5889 70.1122 72.5889C87.6906 72.0013 94.4516 59.831 94.4516 59.831C94.4516 32.8045 82.9978 10.8979 82.9978 10.8979C73.1507 3.10055 63.7092 2.19407 61.2594 2.09335L60.6469 2.08496L59.5333 3.42789C71.528 7.29722 77.8276 12.6857 79.1003 13.8608L79.3389 14.0874C67.1508 6.99438 53.1231 4.22814 39.33 6.19769C38.8528 6.19769 38.4551 6.28162 37.9779 6.36556L37.5324 6.40752C34.5099 6.73486 28.0114 7.90993 19.9222 11.6533L18.7688 12.2241C17.3212 12.9459 16.2713 13.5083 15.7065 13.8188L15.2293 14.0874C15.2293 14.0874 21.6959 7.59098 35.7189 3.22645L36.1484 3.09216ZM33.1259 33.392C37.6597 33.392 41.3186 37.5887 41.239 42.7086C41.239 47.8286 37.6597 52.0252 33.1259 52.0252C28.6716 52.0252 25.0128 47.8286 25.0128 42.7086C25.0128 37.5887 28.5921 33.392 33.1259 33.392ZM62.1581 33.392C66.692 33.392 70.2713 37.5887 70.2713 42.7086C70.2713 47.8286 66.692 52.0252 62.1581 52.0252C57.7039 52.0252 54.045 47.8286 54.045 42.7086C54.045 37.5887 57.6243 33.392 62.1581 33.392Z" fill="#E5CDFD"/>
<path fill-rule="evenodd" clip-rule="evenodd" d="M31.2743 14.0201C31.779 15.0464 31.3406 16.2801 30.2951 16.7756L15.6464 23.7183C13.3217 27.894 11.1319 35.169 9.49945 42.8741C7.90343 50.4071 6.90388 58.0384 6.7946 63.0454C12.076 67.843 16.4302 69.9801 19.393 70.931C20.9395 71.4273 22.1231 71.6059 22.8823 71.6658C23.2626 71.6958 23.5382 71.6961 23.7016 71.6913C23.7833 71.6889 23.837 71.6851 23.8618 71.6831C23.8675 71.6827 29.9354 72.208 23.8743 71.6821C27.3548 71.6913 30.2993 71.0867 30.4515 72.208C30.605 73.3377 25.5548 75.6257 24.4041 75.7764L24.1263 73.7308C24.4041 75.7764 24.4008 75.7768 24.4008 75.7768L24.3973 75.7772L24.3898 75.7782L24.3726 75.7803L28.4584 73.7206C28.4257 73.7241 24.2562 75.7925 24.208 75.7964C24.1117 75.8042 23.9848 75.8121 23.8284 75.8167C23.5155 75.826 23.085 75.8223 22.5456 75.7798C21.4655 75.6946 19.9559 75.4539 18.0867 74.8539C14.3405 73.6516 9.21318 71.0271 3.23119 65.4213L2.58057 64.8116L2.58057 63.9286C2.58055 58.5726 3.66073 50.1649 5.3835 42.0336C7.09511 33.955 9.51313 25.7947 12.3299 21.0936L13.4193 14.9176L25.2902 9.75635L28.4674 13.0588C29.5129 12.5633 30.7696 12.9937 31.2743 14.0201Z" fill="#C1A0E1"/>
<path fill-rule="evenodd" clip-rule="evenodd" d="M59.4545 1.09815C59.7534 0.737682 60.1996 0.531812 60.6682 0.538232L61.2806 0.546624C61.2948 0.546818 61.3089 0.547205 61.3231 0.547787C63.9746 0.656798 73.7725 1.61905 83.9596 9.68567C84.1298 9.82042 84.2697 9.98943 84.3703 10.1817L82.9978 10.8978C84.3703 10.1817 84.3705 10.1821 84.3707 10.1826L84.3715 10.1841L84.3738 10.1884L84.3814 10.2032L84.4088 10.2564C84.4324 10.3025 84.4665 10.3694 84.5104 10.4568C84.5982 10.6317 84.7252 10.8883 84.8859 11.2225C85.2071 11.8911 85.6629 12.8705 86.2082 14.1281C87.2988 16.6427 88.7489 20.2724 90.1981 24.7539C93.0939 33.7088 96 46.108 96 59.8307C96 60.0933 95.9331 60.3516 95.8055 60.5812L94.4516 59.8307C95.8055 60.5812 95.8051 60.582 95.8046 60.5828L95.8036 60.5847L95.801 60.5892L95.7941 60.6016L95.7724 60.6394C95.7545 60.6703 95.7297 60.7126 95.6979 60.7653C95.6343 60.8709 95.5425 61.0187 95.4216 61.203C95.1798 61.5713 94.8207 62.0861 94.3361 62.6996C93.3675 63.9259 91.8923 65.553 89.8429 67.1957C85.7308 70.4917 79.3316 73.828 70.164 74.1344C69.6733 74.1508 69.2039 73.9337 68.8988 73.5494L68.8973 73.5474L68.8109 73.4384C68.7539 73.3663 68.6704 73.2607 68.5639 73.1257C68.351 72.8559 68.0463 72.4688 67.6786 71.9992C66.9435 71.0603 65.9551 69.7897 64.9439 68.4654L64.939 68.459L63.6266 66.7216C63.3211 66.3172 63.2333 65.7891 63.3913 65.3077C63.4612 65.095 63.5752 64.9033 63.7226 64.7432C62.0874 65.2164 60.4693 65.5947 58.8628 65.8836L58.2074 66.0101C50.5992 67.4117 43.6301 66.9683 37.6785 65.7967L37.6686 65.7948C35.6759 65.3889 33.8041 64.9043 32.0537 64.3752C32.3143 64.5663 32.5121 64.8369 32.6128 65.1527C32.7655 65.6316 32.6757 66.1548 32.372 66.5556L29.3892 70.492L29.3794 70.5049L27.0329 73.5349C26.7285 73.928 26.2535 74.1511 25.7562 74.1344C9.02318 73.5724 1.65211 62.9555 0.391184 60.9222C0.382016 60.9074 0.373098 60.8925 0.364435 60.8774L0.205355 60.6004C0.0707997 60.3662 0 60.1008 0 59.8307C0 35.4293 9.1929 15.1857 11.2272 10.9951L11.2321 10.985L11.6139 10.2128C11.7154 10.0076 11.8612 9.82741 12.0408 9.68529C22.4668 1.43618 32.4792 0.62135 34.8458 0.539023C34.8638 0.538399 34.8817 0.538086 34.8997 0.538086H35.3531C35.8271 0.538086 36.2751 0.755033 36.5687 1.12684L37.3641 2.13404C37.6796 2.53358 37.7782 3.0626 37.6278 3.54881C37.4774 4.03502 37.0971 4.4162 36.611 4.5682L36.1795 4.70308C35.5067 4.9125 34.8518 5.12687 34.2147 5.34519C35.4796 5.10724 36.5411 4.95894 37.3656 4.86964L37.3871 4.86747L37.7692 4.83146C37.8024 4.82552 37.8363 4.81935 37.8711 4.81303C38.2375 4.7465 38.6946 4.6635 39.2113 4.65212C46.0978 3.68005 53.039 3.85918 59.7891 5.13997C59.5477 5.05927 59.3039 4.97916 59.0575 4.8997C58.5689 4.74207 58.1903 4.35269 58.0467 3.86019C57.9032 3.36768 58.0134 2.83612 58.3409 2.44108L59.4545 1.09815ZM15.2293 14.0873C14.1314 12.9966 14.1318 12.9962 14.1323 12.9957L14.1358 12.9922L14.1426 12.9855L14.1633 12.965C14.1804 12.9483 14.2038 12.9254 14.2337 12.8968C14.2936 12.8395 14.3792 12.7589 14.4909 12.6571C14.7142 12.4534 15.0419 12.165 15.4761 11.8088C16.3444 11.0963 17.6388 10.1124 19.3766 8.99341C20.9182 8.00079 22.8082 6.9021 25.0586 5.79237C21.8087 7.012 18.0613 8.91806 14.235 11.8973L14.0112 12.3499C12.0593 16.3719 3.20238 35.8986 3.09771 59.4107C4.29375 61.2876 10.7046 70.217 25.0747 71.0078L26.9201 68.625L26.93 68.6121L28.6242 66.376C20.3268 63.1395 16.6374 57.7243 15.9814 56.6673C15.9758 56.6582 15.9702 56.6491 15.9648 56.6399L15.8852 56.5056C15.5144 55.8795 15.6305 55.0799 16.164 54.5848C16.6975 54.0896 17.5043 54.0328 18.1021 54.4482L18.4355 54.6799C18.7473 54.8993 19.3616 55.2961 20.2359 55.8151C20.3538 55.8851 20.4619 55.9704 20.5573 56.0688C20.5905 56.0886 20.623 56.1097 20.6547 56.132C20.6813 56.1507 20.7154 56.1708 20.8442 56.2388L20.8608 56.2475C20.9627 56.3011 21.1313 56.39 21.3115 56.5111C23.203 57.6251 25.1045 58.5086 26.8756 59.24C30.069 60.555 33.8693 61.8635 38.2824 62.7626C43.9249 63.8728 50.4894 64.2851 57.639 62.9691C57.6413 62.9687 57.6436 62.9683 57.6458 62.9678L58.2851 62.8444L58.3049 62.8407C61.912 62.1928 65.6114 61.0565 69.4843 59.3401C69.5049 59.331 69.5257 59.3223 69.5467 59.314C72.2173 58.2673 75.2125 56.7299 78.3752 54.5322C78.9755 54.115 79.7861 54.1743 80.3192 54.6743C80.8523 55.1743 80.9626 55.9787 80.5836 56.6034L80.4564 56.8133C80.4481 56.827 80.4396 56.8405 80.4309 56.8539C79.6103 58.1167 75.7482 63.4653 67.3941 66.5734L67.4061 66.5893C67.4069 66.5903 67.4078 66.5914 67.4086 66.5925C68.4089 67.9025 69.3881 69.1612 70.1179 70.0933C70.399 70.4523 70.643 70.7627 70.8366 71.0085C78.8278 70.5726 84.3556 67.6277 87.9048 64.7828C89.7429 63.3096 91.0566 61.8574 91.905 60.7833C92.3289 60.2467 92.6354 59.8061 92.8319 59.5066C92.8572 59.4681 92.8806 59.432 92.9022 59.3983C92.842 46.2656 90.0517 34.3648 87.2513 25.7048C85.837 21.3314 84.4237 17.7953 83.3667 15.3579C82.8382 14.1394 82.3992 13.1963 82.094 12.5612C81.9591 12.2803 81.8503 12.0597 81.7716 11.9022C76.1199 7.4964 70.6386 5.43509 66.6791 4.47148C74.6516 7.94829 79.0277 11.6873 80.1513 12.7248L80.1672 12.7396L80.4058 12.9662C80.9752 13.507 81.0489 14.388 80.5773 15.0157C80.1058 15.6434 79.2383 15.8188 78.5595 15.4238C66.6687 8.5038 52.9924 5.80919 39.5492 7.72876C39.4766 7.73913 39.4034 7.74433 39.3301 7.74433C39.0593 7.74433 38.8443 7.78255 38.4311 7.85604C38.3736 7.86627 38.3122 7.87718 38.2464 7.88877C38.2056 7.89594 38.1645 7.90147 38.1233 7.90536L37.6888 7.9463C34.8089 8.25929 28.4904 9.39559 20.5913 13.0482L19.4604 13.6079C19.4597 13.6083 19.4589 13.6086 19.4582 13.609C18.0368 14.3178 17.0086 14.8684 16.4599 15.1701L15.9894 15.4349C15.3158 15.8139 14.4656 15.6386 13.9973 15.0241C13.529 14.4096 13.5863 13.5442 14.1314 12.9966L15.2293 14.0873ZM33.1259 34.9386C29.6515 34.9386 26.5612 38.2234 26.5612 42.7084C26.5612 47.1829 29.7219 50.4782 33.1259 50.4782C36.6004 50.4782 39.6907 47.1934 39.6907 42.7084L39.6909 42.6844C39.7599 38.2418 36.6198 34.9386 33.1259 34.9386ZM23.4644 42.7084C23.4644 36.9535 27.5328 31.8451 33.1259 31.8451C38.6959 31.8451 42.8716 36.9281 42.7874 42.7205C42.7817 48.4703 38.7151 53.5717 33.1259 53.5717C27.6214 53.5717 23.4644 48.4737 23.4644 42.7084ZM62.1582 34.9386C58.6837 34.9386 55.5935 38.2234 55.5935 42.7084C55.5935 47.1829 58.7542 50.4782 62.1582 50.4782C65.6327 50.4782 68.7229 47.1934 68.7229 42.7084C68.7229 38.2234 65.6327 34.9386 62.1582 34.9386ZM52.4967 42.7084C52.4967 36.9535 56.5651 31.8451 62.1582 31.8451C67.7513 31.8451 71.8197 36.9535 71.8197 42.7084C71.8197 48.4632 67.7513 53.5717 62.1582 53.5717C56.6537 53.5717 52.4967 48.4737 52.4967 42.7084Z" fill="black"/>
</svg>
