<svg width="29" height="30" viewBox="0 0 29 30" fill="none" xmlns="http://www.w3.org/2000/svg">
<path d="M3.60409 1.0319e-06C3.13104 -0.000356872 2.66255 0.0923902 2.22539 0.272945C1.78822 0.453499 1.39095 0.718323 1.05626 1.05229C0.721572 1.38626 0.456026 1.78282 0.274789 2.21933C0.0935533 2.65584 0.000178983 3.12374 0 3.59631C0 5.58518 1.61318 7.23349 3.6 7.23349C5.58954 7.23349 7.20409 5.58518 7.20409 3.59903C7.20445 3.12653 7.11159 2.65859 6.93084 2.22195C6.75008 1.78531 6.48496 1.38853 6.15064 1.0543C5.81631 0.720061 5.41933 0.454916 4.98238 0.274014C4.54543 0.0931121 4.07708 8.96309e-07 3.60409 1.0319e-06ZM21.1841 9.53567C18.1582 9.53567 16.4277 11.1159 15.5959 12.6879H15.5086V9.95932H9.54545V29.9692H15.7595V20.0644C15.7595 17.4544 15.9559 14.9315 19.1891 14.9315C22.3759 14.9315 22.4223 17.908 22.4223 20.2292V29.9692H28.6364V18.9787C28.6364 13.6006 27.4786 9.53567 21.1841 9.53567ZM0.495 9.95796V29.9692H6.71318V9.95796H0.495Z" fill="black"/>
</svg>
