<svg width="28" height="22" viewBox="0 0 28 22" fill="none" xmlns="http://www.w3.org/2000/svg">
<path d="M27.4135 2.80305C26.4054 3.22782 25.3361 3.50656 24.2411 3.63C25.3944 2.97404 26.2573 1.94207 26.6693 0.726334C25.585 1.33815 24.3984 1.76887 23.161 1.99981C22.3295 1.15413 21.2273 0.593265 20.0257 0.404448C18.8241 0.215631 17.5905 0.409444 16.5169 0.955744C15.4432 1.50204 14.5896 2.37021 14.0888 3.42521C13.588 4.4802 13.4681 5.6629 13.7477 6.78935C11.5511 6.68479 9.40206 6.14238 7.44029 5.19734C5.47851 4.2523 3.7478 2.92575 2.36051 1.30382C1.86889 2.10526 1.61068 3.01664 1.61239 3.94431C1.61239 5.76534 2.58758 7.37183 4.06938 8.31353C3.19227 8.28724 2.33451 8.06185 1.56777 7.65621V7.72356C1.56777 10.268 3.47089 12.3884 5.99875 12.8711C5.18484 13.0792 4.33202 13.1103 3.5037 12.9621C3.85664 14.005 4.54365 14.917 5.46869 15.5706C6.39374 16.2243 7.51058 16.587 8.66312 16.6079C7.51699 17.4633 6.20459 18.0955 4.80106 18.4683C3.39752 18.8412 1.93039 18.9473 0.483643 18.7807C3.00936 20.3237 5.94924 21.143 8.95187 21.1405C19.1132 21.1405 24.6703 13.1417 24.6703 6.20313C24.6703 5.97613 24.6651 5.75037 24.6533 5.52461C25.736 4.78028 26.6706 3.85872 27.4135 2.80305V2.80305Z" fill="black"/>
</svg>
