<svg width="25" height="24" viewBox="0 0 25 24" fill="none" xmlns="http://www.w3.org/2000/svg">
<path d="M12.424 0C9.07104 0 8.64396 0.013296 7.32804 0.0731654C6.012 0.133035 5.11595 0.325951 4.33201 0.61865C3.52001 0.917996 2.827 1.31713 2.14101 1.97569C1.45501 2.6276 1.03501 3.28617 0.713012 4.05781C0.405007 4.80286 0.195007 5.66098 0.139003 6.90489C0.0830118 8.15554 0.0620117 8.55467 0.0620117 11.7477C0.0620117 14.9341 0.076003 15.3333 0.139003 16.5905C0.202003 17.841 0.405007 18.6925 0.713012 19.4377C1.02801 20.2092 1.44801 20.8678 2.14101 21.5197C2.827 22.1717 3.52001 22.5774 4.33201 22.8768C5.11595 23.1695 6.01895 23.3624 7.32804 23.4222C8.64396 23.4821 9.06396 23.4954 12.424 23.4954C15.777 23.4954 16.197 23.4821 17.52 23.4222C18.836 23.3624 19.732 23.1695 20.523 22.8768C21.3351 22.5774 22.021 22.1717 22.707 21.5197C23.3931 20.8678 23.8131 20.2092 24.135 19.4377C24.436 18.6925 24.646 17.841 24.709 16.5905C24.765 15.3399 24.786 14.9407 24.786 11.7477C24.786 8.56128 24.772 8.16215 24.709 6.90489C24.646 5.65437 24.436 4.80286 24.135 4.05781C23.82 3.28617 23.3931 2.6276 22.707 1.97569C22.021 1.32377 21.3351 0.924644 20.5161 0.61865C19.725 0.325951 18.829 0.133035 17.513 0.0731654C16.197 0.013296 15.777 0 12.424 0ZM11.318 2.11538C11.647 2.11538 12.011 2.11538 12.424 2.11538C15.721 2.11538 16.113 2.12869 17.415 2.1819C18.619 2.23512 19.27 2.42804 19.711 2.58769C20.285 2.80055 20.698 3.05334 21.132 3.46577C21.5661 3.8782 21.832 4.27064 22.056 4.8162C22.224 5.22855 22.4271 5.85394 22.483 6.99806C22.539 8.23536 22.5531 8.60793 22.5531 11.7411C22.5531 14.8743 22.539 15.2467 22.483 16.484C22.4271 17.6282 22.224 18.2469 22.056 18.666C21.832 19.2114 21.5661 19.6039 21.132 20.0164C20.698 20.4288 20.292 20.6816 19.711 20.8945C19.277 21.0541 18.619 21.247 17.415 21.3002C16.113 21.3535 15.721 21.3667 12.424 21.3667C9.12696 21.3667 8.73504 21.3535 7.43304 21.3002C6.22895 21.247 5.57795 21.0541 5.13695 20.8945C4.563 20.6816 4.15001 20.4288 3.71601 20.0164C3.28201 19.6039 3.016 19.2114 2.79201 18.666C2.62401 18.2535 2.42101 17.6282 2.365 16.484C2.30901 15.2467 2.29501 14.8743 2.29501 11.7411C2.29501 8.60793 2.30901 8.23536 2.365 6.99806C2.42101 5.85394 2.62401 5.23529 2.79201 4.8162C3.016 4.27064 3.28201 3.8782 3.71601 3.46577C4.15001 3.05334 4.563 2.80055 5.13695 2.58769C5.571 2.42804 6.22895 2.23512 7.43304 2.1819C8.574 2.12869 9.015 2.11538 11.318 2.11538ZM19.018 4.06447C18.199 4.06447 17.534 4.69646 17.534 5.47476C17.534 6.25307 18.199 6.88494 19.018 6.88494C19.837 6.88494 20.502 6.25307 20.502 5.47476C20.502 4.69646 19.837 4.06447 19.018 4.06447ZM12.424 5.71424C8.91696 5.71424 6.08195 8.41497 6.08195 11.7411C6.08195 15.0738 8.92404 17.7679 12.424 17.7679C15.931 17.7679 18.766 15.0671 18.766 11.7411C18.766 8.40836 15.931 5.71424 12.424 5.71424ZM12.424 7.82963C14.699 7.82963 16.54 9.57906 16.54 11.7411C16.54 13.903 14.699 15.6526 12.424 15.6526C10.149 15.6526 8.30796 13.903 8.30796 11.7411C8.30796 9.57906 10.149 7.82963 12.424 7.82963Z" fill="black"/>
</svg>
