<svg width="21" height="25" viewBox="0 0 21 25" fill="none" xmlns="http://www.w3.org/2000/svg">
<path d="M16.7613 4.19794C16.7613 4.19794 17.428 4.85069 16.7613 4.19794C15.8678 3.17917 15.3753 1.87083 15.3757 0.516479H11.3365V16.7045C11.3054 17.5805 10.935 18.4103 10.3035 19.019C9.67204 19.6278 8.82863 19.9681 7.95093 19.9682C6.09473 19.9682 4.55226 18.4538 4.55226 16.5739C4.55226 14.3285 6.72218 12.6444 8.95745 13.3363V9.211C4.44768 8.61048 0.5 12.1092 0.5 16.5739C0.5 20.9212 4.10782 24.0152 7.93785 24.0152C12.0424 24.0152 15.3757 20.6862 15.3757 16.5739V8.36244C17.0136 9.53718 18.9801 10.1675 20.9966 10.164V6.13006C20.9966 6.13006 18.5391 6.24755 16.7613 4.19794Z" fill="black"/>
</svg>
