<svg width="28" height="21" viewBox="0 0 28 21" fill="none" xmlns="http://www.w3.org/2000/svg">
<path d="M18.4318 1.43891C20.1518 1.73752 21.8282 2.22975 23.4255 2.90517C26.3238 6.9629 27.7696 11.5207 27.311 16.7659C25.4264 18.0535 23.3376 19.0485 21.1228 19.7133C20.7807 19.2619 20.47 18.8016 20.1897 18.3254C20.8264 18.0795 21.4437 17.7893 22.0364 17.4569L22.7298 17.0681L22.079 16.6115C21.9906 16.5495 21.9071 16.4864 21.8154 16.4172L21.812 16.4147C21.721 16.346 21.622 16.2713 21.5146 16.1965L21.2829 16.035L21.025 16.1501C16.8221 18.0256 11.929 18.0255 7.72741 16.1502L7.4682 16.0345L7.236 16.1977C7.13395 16.2695 7.03906 16.3408 6.95134 16.4068L6.94098 16.4146C6.84856 16.4841 6.76343 16.5479 6.67337 16.6106L6.02226 17.0644L6.71264 17.4558C7.2982 17.7878 7.90845 18.0778 8.5383 18.3236C8.25725 18.8008 7.94646 19.262 7.60412 19.7139C5.38692 19.0533 3.29677 18.058 1.41393 16.7665C1.01713 12.2264 1.95136 7.64943 5.28172 2.92441C6.86515 2.2337 8.54936 1.73168 10.2766 1.4367C10.472 1.77509 10.6506 2.122 10.8117 2.47628L10.9673 2.81826L11.339 2.76405C13.3437 2.47171 15.3837 2.47171 17.3884 2.76405L17.7634 2.81873L17.9174 2.47255C18.0605 2.15096 18.2473 1.77523 18.4318 1.43891ZM12.7945 11.5512L12.7946 11.5512V11.5428C12.7946 9.86699 11.5209 8.46467 9.84806 8.46467C8.19303 8.46467 6.92518 9.89562 6.92518 11.5428C6.92518 13.1961 8.19881 14.5972 9.84806 14.5972C11.5252 14.5972 12.7669 13.1919 12.7945 11.5512ZM15.9316 11.5428C15.9316 13.1963 17.2067 14.5972 18.8545 14.5972L21.2773 11.5428L21.7773 11.5515C21.7773 11.5514 21.7773 11.5512 21.7773 11.5511C21.8065 9.86709 20.5271 8.46467 18.8545 8.46467C17.1994 8.46467 15.9316 9.89562 15.9316 11.5428Z" fill="black" stroke="black"/>
</svg>
